<?xml version="1.0" encoding="UTF-8"?>
<svg width="700pt" height="700pt" version="1.1" viewBox="0 0 700 700" xmlns="http://www.w3.org/2000/svg">
 <path d="m612.34 62.598-38.938-38.938c-23.469-23.449-62.109-23.941-86.152-1.0156l-353.97 337.75c-2.0664 1.9609-3.6211 4.4258-4.5156 7.1211l-51.504 154.51c-3.5 10.516-0.82422 21.891 7 29.715 5.5469 5.5469 12.898 8.5234 20.457 8.5234 3.0977 0 6.2109-0.48828 9.2578-1.5234l154.51-51.504c2.6953-0.89062 5.1641-2.4492 7.1211-4.5156l337.75-353.97c22.941-24.012 22.469-62.668-1.0156-86.152zm-432.86 437.43-43.504-43.504 17.027-51.082 77.559 77.559zm-9.0664-126.68 274.17-261.59 27.457 27.457-267.87 267.91-33.773-33.773zm92.262 92.262-33.758-33.758 267.87-267.89 27.457 27.457-261.59 274.17zm325.36-341.02-26.215 27.477-77.859-77.859 27.477-26.215c10.395-9.9414 27.09-9.7305 37.238 0.42188l38.938 38.938c10.148 10.148 10.344 26.844 0.42188 37.238z"/>
</svg>
